<!-- icon666.com - MILLIONS OF FREE VECTOR ICONS --><svg viewBox="0 0 512 512" xmlns="http://www.w3.org/2000/svg" xmlns:xlink="http://www.w3.org/1999/xlink"><linearGradient id="New_Gradient_Swatch_3" gradientUnits="userSpaceOnUse" x1="176.402" x2="240.091" y1="327.598" y2="263.91"><stop offset="0" stop-color="#fc8450"></stop><stop offset="1" stop-color="#f0d160"></stop></linearGradient><g id="_36-laptop_sleep" data-name="36-laptop sleep"><g id="linear_color" data-name="linear color"><path d="m68 120h376a16 16 0 0 1 16 16v256a0 0 0 0 1 0 0h-408a0 0 0 0 1 0 0v-256a16 16 0 0 1 16-16z" fill="#595d84"></path><path d="m52 152h408v240h-408z" fill="#c1f1ea"></path><path d="m24 392h464a0 0 0 0 1 0 0 32 32 0 0 1 -32 32h-400a32 32 0 0 1 -32-32 0 0 0 0 1 0 0z" fill="#595d84"></path><path d="m224 392h64v32h-64z" fill="#7ed7de"></path><path d="m248 308a47.989 47.989 0 0 1 -39.326-75.508 55.995 55.995 0 1 0 61.383 70.136 47.776 47.776 0 0 1 -22.057 5.372z" fill="url(#New_Gradient_Swatch_3)"></path><path d="m488 384h-20v-248a24.028 24.028 0 0 0 -24-24h-376a24.028 24.028 0 0 0 -24 24v248h-20a8 8 0 0 0 -8 8 40.045 40.045 0 0 0 40 40h400a40.045 40.045 0 0 0 40-40 8 8 0 0 0 -8-8zm-420-256h376a8.009 8.009 0 0 1 8 8v8h-392v-8a8.009 8.009 0 0 1 8-8zm-8 32h392v224h-392zm-26.629 240h182.629v16h-160a24.042 24.042 0 0 1 -22.629-16zm198.629 16v-16h48v16zm224 0h-160v-16h182.629a24.042 24.042 0 0 1 -22.629 16z"></path><path d="m277.781 304.713a8 8 0 0 0 -11.405-9.188 39.548 39.548 0 0 1 -18.376 4.475 39.989 39.989 0 0 1 -32.774-62.917 8 8 0 0 0 -7.589-12.523 63.995 63.995 0 1 0 70.144 80.153zm-61.781 31.287a47.994 47.994 0 0 1 -22.072-90.614 55.991 55.991 0 0 0 61.4 70.129 48.1 48.1 0 0 1 -39.328 20.485z"></path><path d="m260 212h16.29l-22.76 31.3a8 8 0 0 0 6.47 12.7h32a8 8 0 0 0 0-16h-16.29l22.76-31.295a8 8 0 0 0 -6.47-12.705h-32a8 8 0 0 0 0 16z"></path><path d="m320 236h16.29l-22.76 31.3a8 8 0 0 0 6.47 12.7h32a8 8 0 0 0 0-16h-16.29l22.76-31.295a8 8 0 0 0 -6.47-12.705h-32a8 8 0 0 0 0 16z"></path></g></g></svg>