<!-- icon666.com - MILLIONS OF FREE VECTOR ICONS --><svg id="Flat" viewBox="0 0 512 512" xmlns="http://www.w3.org/2000/svg"><g id="Color"><path d="m386 136 78 24c-34.95-45-75.44-108.18-122.07-129.4a38 38 0 0 0 -41.1 6.72c-41.46 37.43-134.56 146.84-184.83 238.68l276 4.2-26.41-125.63a16 16 0 0 1 20.41-18.57z" fill="#a4c0d8"></path><circle cx="256" cy="332" fill="#d7e6ef" r="124"></circle><path d="m256 176a156 156 0 1 0 156 156 156 156 0 0 0 -156-156zm0 280a124 124 0 1 1 124-124 124.15 124.15 0 0 1 -124 124z" fill="#3c323d"></path><path d="m380 332a124.11 124.11 0 0 1 -124 124h-.64v-121.52l-108.24-61.92a124 124 0 0 1 232.88 59.44z" fill="#feb944"></path><circle cx="326" cy="274" fill="#f5f9ff" r="10"></circle><circle cx="301" cy="289" fill="#f5f9ff" r="5"></circle><circle cx="464" cy="160" fill="#d7e6ef" r="24"></circle><path d="m255.35 260.7a8 8 0 0 0 -8 8v52l-20.93-12a8 8 0 0 0 -7.94 13.89l32.9 18.81c5.08 3.11 12.16-1 12-6.95v-65.75a8 8 0 0 0 -8.03-8z" fill="#3c323d"></path><g fill="#7b90a2"><path d="m88 80h-44.69l50.35-50.34a8 8 0 0 0 -5.66-13.66h-64a8 8 0 0 0 0 16h44.69l-50.35 50.34a8 8 0 0 0 5.66 13.66h64a8 8 0 0 0 0-16z"></path><path d="m176 120h-20.69l26.35-26.34a8 8 0 0 0 -5.66-13.66h-40a8 8 0 0 0 0 16h20.69l-26.35 26.34a8 8 0 0 0 5.66 13.66h40a8 8 0 0 0 0-16z"></path><path d="m80 176h-12.69l18.35-18.34a8 8 0 0 0 -5.66-13.66h-32a8 8 0 0 0 0 16h12.69l-18.35 18.34a8 8 0 0 0 5.66 13.66h32a8 8 0 0 0 0-16z"></path><path d="m367.83 164.44-12.83-55.44a8 8 0 0 0 -15.57 3.63l12.87 55.41a8 8 0 0 0 15.58-3.62z"></path></g></g></svg>