<!-- icon666.com - MILLIONS OF FREE VECTOR ICONS --><svg id="Layer_1" enable-background="new 0 0 66 66" viewBox="0 0 66 66" xmlns="http://www.w3.org/2000/svg"><g><g><g><path d="m58.95 21.63c-3.43-1.6-7.5-.88-11.09 1.55-2.26 1.52-5.04 2.05-7.7 1.48-.04-.01-.07-.02-.11-.02-3.34-.72-6.01-3.12-7.27-6.29-1.23-3.13-3.33-5.6-6.2-6.94-7.65-3.56-17.9 2.23-22.89 12.95-4.99 10.71-2.84 22.28 4.81 25.84 3.89 1.81 8.45 1.2 12.65-1.24 3.98-2.31 8.63-3.16 13.12-2.14.48.11.96.22 1.45.33 2.74.63 5.22 1.97 7.44 3.7.52.41 1.09.75 1.7 1.04 6.09 2.84 14.19-1.63 18.08-9.98 3.89-8.36 2.11-17.44-3.99-20.28z" fill="#e6f3fa"></path></g><g><path d="m48.85 47.89c-.61-.28-1.18-.63-1.7-1.04-2.22-1.72-4.7-3.07-7.44-3.7-.48-.11-.96-.22-1.45-.33-4.49-1.01-9.14-.17-13.12 2.14-4.2 2.44-8.76 3.05-12.65 1.24-7.65-3.56-9.8-15.14-4.81-25.85 1.03-2.22 2.3-4.21 3.71-5.96-3.05 2.42-5.78 5.82-7.71 9.96-4.98 10.72-2.83 22.29 4.82 25.85 3.89 1.81 8.45 1.2 12.65-1.24 3.98-2.31 8.63-3.16 13.12-2.14.48.11.96.22 1.45.33 2.74.63 5.22 1.97 7.44 3.7.52.41 1.09.75 1.7 1.04 5.03 2.34 11.41-.3 15.68-5.98-3.74 2.75-8.06 3.66-11.69 1.98z" fill="#e1eef4"></path></g><g><g><circle cx="59.21" cy="8.21" fill="#e1eef4" r="4"></circle></g><g><circle cx="7.45" cy="57.79" fill="#f0f8fc" r="4"></circle></g></g><g><path d="m61.13 29.22c-.33-1.27-.94-2.52-1.92-3.54-.97-1.02-2.38-1.68-3.81-1.76-1.42-.1-2.8.24-4.03.77-.62.26-1.2.6-1.76.96-.5.33-.98.61-1.5.87-1.03.51-2.12.88-3.25 1.1-4.49.96-9.45-.59-12.61-4.03-.8-.85-1.49-1.81-2.06-2.84-.56-.98-1.01-2.26-1.82-3.29-.78-1.03-1.78-1.93-2.95-2.47-1.16-.55-2.45-.75-3.69-.64 1.23.1 2.42.49 3.42 1.13s1.81 1.53 2.41 2.53c.64.99.92 2.11 1.47 3.33.53 1.18 1.24 2.28 2.06 3.28 1.64 2.02 3.89 3.56 6.38 4.43 2.48.86 5.21 1.05 7.8.53 1.29-.27 2.55-.71 3.73-1.32.58-.3 1.16-.65 1.69-1.01.47-.32.96-.6 1.47-.85 1.01-.49 2.09-.78 3.14-.75 1.04.04 2.04.42 2.83 1.14 1.58 1.47 2.29 3.9 2.37 6.26.05 1.19-.05 2.4-.24 3.6-.22 1.2-.54 2.38-.95 3.55.6-1.08 1.11-2.22 1.49-3.42.36-1.2.59-2.45.68-3.72s-.02-2.57-.35-3.84z" fill="#f0f8fc"></path></g></g><g><g><g><g><path d="m50.65 11.31c.46-.45.21-1.22-.43-1.31l-2.14-.31c-.25-.04-.47-.19-.58-.42l-.96-1.94c-.28-.57-1.1-.57-1.38 0l-.96 1.94c-.11.23-.33.39-.58.42l-2.14.31c-.63.09-.88.87-.43 1.31l1.55 1.51c.18.18.26.43.22.68l-.36 2.13c-.11.63.55 1.11 1.12.81l1.91-1c.22-.12.49-.12.72 0l1.91 1c.57.3 1.23-.18 1.12-.81l-.36-2.13c-.04-.25.04-.51.22-.68z" fill="#ffab03"></path></g><g opacity=".2"><path d="m50.22 9.99-2.14-.31c-.25-.04-.47-.19-.58-.42l-.96-1.94c-.1-.19-.25-.32-.43-.38v3.78c0 .88.71 1.59 1.59 1.59h1.92l1.03-1c.46-.45.2-1.23-.43-1.32z" fill="#fff"></path></g></g><g><path d="m37.57 48.4c-10.98 0-19.88-8.9-19.88-19.88 0-5.56 2.28-10.58 5.96-14.19-9.61 2.68-16.67 11.5-16.67 21.97 0 12.6 10.21 22.81 22.81 22.81 10.47 0 19.29-7.06 21.97-16.67-3.6 3.67-8.63 5.96-14.19 5.96z" fill="#7cb5e8"></path></g><g opacity=".2"><path d="m36.05 48.34c-9.71-.73-17.58-8.6-18.3-18.3-.46-6.16 1.89-11.78 5.9-15.71-.02.01-.05.01-.07.02-4.83 1.37-8.56 5.28-9.85 10.13-.65 2.44-.9 5.04-.68 7.73.9 11.02 9.82 19.94 20.83 20.84 2.69.22 5.29-.03 7.73-.68 4.85-1.29 8.76-5.01 10.13-9.85l.02-.07c-3.93 4-9.55 6.35-15.71 5.89z" fill="#fff"></path></g><g><path d="m49.46 26.68c1.24-1.21.56-3.32-1.16-3.57l-5.8-.84c-.68-.1-1.27-.53-1.57-1.14l-2.59-5.25c-.77-1.55-2.98-1.55-3.75 0l-2.59 5.25c-.3.62-.89 1.04-1.57 1.14l-5.8.84c-1.72.25-2.4 2.36-1.16 3.57l4.19 4.09c.49.48.72 1.17.6 1.85l-.99 5.77c-.29 1.71 1.5 3.01 3.03 2.2l5.18-2.73c.61-.32 1.34-.32 1.95 0l5.18 2.73c1.53.81 3.33-.5 3.03-2.2l-.99-5.77c-.12-.68.11-1.37.6-1.85z" fill="#ffab03"></path></g><g opacity=".2"><path d="m48.3 23.12-5.8-.84c-.68-.1-1.27-.53-1.57-1.14l-2.59-5.25c-.26-.52-.69-.86-1.17-1.03v10.24c0 2.38 1.93 4.31 4.31 4.31h5.2l2.79-2.72c1.23-1.22.54-3.32-1.17-3.57z" fill="#fff"></path></g><g opacity=".2"><path d="m46.26 24.5c.82 0 1.54-.6 1.66-1.44l-5.42-.79c-.68-.1-1.27-.53-1.57-1.14l-1.99-4.04c-.83.41-1.17 1.42-.76 2.25l1.25 2.53c.55 1.11 1.61 1.89 2.84 2.07l3.75.55c.08.01.16.01.24.01z" fill="#fff"></path></g><g><g><path d="m58.79 32.61c.46-.45.21-1.22-.43-1.31l-2.14-.31c-.25-.04-.47-.19-.58-.42l-.96-1.94c-.28-.57-1.1-.57-1.38 0l-.96 1.94c-.11.23-.33.39-.58.42l-2.14.31c-.63.09-.88.87-.43 1.31l1.55 1.51c.18.18.26.43.22.68l-.36 2.13c-.11.63.55 1.11 1.12.81l1.91-1c.22-.12.49-.12.72 0l1.91 1c.57.3 1.23-.18 1.12-.81l-.36-2.13c-.04-.25.04-.51.22-.68z" fill="#ffab03"></path></g><g opacity=".2"><path d="m58.36 31.3-2.14-.31c-.25-.04-.47-.19-.58-.42l-.96-1.94c-.1-.19-.25-.32-.43-.38v3.78c0 .88.71 1.59 1.59 1.59h1.92l1.03-1c.45-.45.2-1.23-.43-1.32z" fill="#fff"></path></g></g></g><g><g><path d="m29.32 41.48c-.56 0-1.12-.18-1.6-.52-.85-.61-1.26-1.63-1.08-2.66l.99-5.77c.08-.47-.08-.96-.42-1.29l-4.19-4.09c-.75-.73-1.01-1.8-.69-2.79s1.16-1.7 2.2-1.85l5.8-.84c.48-.07.89-.37 1.1-.8l.76-1.55c.15-.31.53-.44.85-.29.31.15.44.53.29.85l-.76 1.55c-.4.8-1.16 1.36-2.05 1.49l-5.8.84c-.56.08-1 .45-1.18.99s-.04 1.1.37 1.5l4.19 4.09c.64.63.94 1.53.78 2.41l-.99 5.77c-.1.56.12 1.09.58 1.43.46.33 1.03.37 1.54.11l5.19-2.73c.79-.42 1.74-.42 2.53 0l5.18 2.72c.5.26 1.08.22 1.54-.11s.68-.87.58-1.43l-.99-5.77c-.15-.88.14-1.78.78-2.41l4.19-4.09c.41-.4.55-.96.37-1.5s-.62-.91-1.18-.99l-5.8-.84c-.89-.13-1.65-.69-2.05-1.49l-2.59-5.25c-.25-.51-.74-.81-1.31-.81-.57 0-1.06.3-1.31.81l-.93 1.89c-.15.31-.53.44-.85.29-.31-.15-.44-.53-.29-.85l.93-1.89c.46-.94 1.4-1.52 2.44-1.52 1.04 0 1.98.58 2.44 1.52l2.59 5.25c.21.43.62.73 1.1.8l5.8.84c1.03.15 1.88.86 2.2 1.85s.06 2.06-.69 2.79l-4.19 4.09c-.34.34-.5.82-.42 1.29l.99 5.77c.18 1.03-.24 2.05-1.08 2.66s-1.94.69-2.87.21l-5.18-2.72c-.43-.22-.93-.22-1.36 0l-5.19 2.73c-.39.2-.82.31-1.26.31z"></path></g><g><path d="m51.37 38.46c-.29 0-.58-.09-.82-.27-.44-.32-.65-.84-.56-1.37l.36-2.13c.01-.05-.01-.09-.04-.12l-1.55-1.51c-.38-.38-.52-.93-.36-1.44.17-.51.6-.88 1.13-.95l2.14-.31c.05-.01.08-.03.11-.08l.95-1.94c.24-.48.72-.78 1.26-.78s1.02.3 1.26.78l.96 1.94c.02.04.06.07.1.08l2.14.31c.53.08.97.44 1.13.95.17.51.03 1.06-.35 1.44l-1.55 1.51c-.03.03-.05.08-.04.12l.37 2.13c.09.53-.12 1.06-.56 1.37-.43.32-1 .36-1.48.11l-1.91-1.01c-.04-.02-.09-.02-.13 0l-1.91 1c-.21.12-.43.17-.65.17zm2.63-2.44c.22 0 .45.05.65.16l1.91 1.01c.05.03.1.02.15-.01s.06-.08.06-.14l-.37-2.13c-.08-.46.07-.92.4-1.24l1.55-1.51c.04-.04.05-.09.04-.14-.02-.05-.06-.09-.11-.09l-2.14-.31c-.46-.07-.85-.35-1.06-.77l-.96-1.93c-.05-.1-.2-.1-.25 0l-.96 1.94c-.2.41-.6.7-1.06.77l-2.14.31c-.06.01-.09.04-.11.09s-.01.1.04.14l1.55 1.51c.33.32.48.79.4 1.24l-.36 2.13c-.01.06.01.1.06.14.05.03.1.04.15.01l1.91-1.01c.2-.12.42-.17.65-.17z"></path></g><g><path d="m48.49 17.16c-.22 0-.45-.05-.65-.16l-1.91-1c-.04-.02-.09-.02-.13 0l-1.91 1c-.47.25-1.04.21-1.48-.11s-.65-.84-.56-1.37l.37-2.13c.01-.04-.01-.09-.04-.12l-1.55-1.51c-.38-.38-.52-.93-.35-1.44s.6-.88 1.13-.95l2.14-.31c.04-.01.08-.03.1-.08l.96-1.94c.24-.48.72-.78 1.26-.78.54 0 1.02.3 1.26.78l.96 1.94c.02.04.06.07.11.08l2.14.31c.53.08.97.44 1.13.95.17.51.03 1.06-.36 1.44l-1.55 1.51c-.03.03-.05.08-.04.12l.37 2.13c.09.53-.12 1.06-.56 1.37-.27.18-.55.27-.84.27zm-2.63-9.63c-.06 0-.1.03-.13.08l-.96 1.94c-.2.41-.6.7-1.06.77l-2.14.31c-.06.01-.09.04-.11.09s-.01.1.04.14l1.55 1.51c.33.32.48.79.4 1.24l-.37 2.13c-.01.06.01.1.06.14.05.03.09.04.15.01l1.91-1c.41-.22.9-.21 1.3 0l1.91 1c.05.03.1.02.15-.01s.07-.08.06-.14l-.37-2.13c-.08-.45.07-.92.4-1.24l1.55-1.51c.04-.04.05-.09.04-.14-.02-.05-.06-.09-.11-.09l-2.14-.31c-.46-.07-.85-.35-1.06-.77l-.95-1.95c-.02-.05-.06-.07-.12-.07z"></path></g><g><path d="m29.79 59.74c-12.93 0-23.45-10.52-23.45-23.45 0-3.95 1-7.85 2.89-11.28.17-.31.55-.42.86-.25s.42.55.25.86c-1.79 3.25-2.73 6.94-2.73 10.67 0 12.23 9.95 22.18 22.18 22.18 9.11 0 17.26-5.63 20.59-13.94-3.62 2.91-8.09 4.49-12.81 4.49-11.31 0-20.52-9.2-20.52-20.52 0-4.72 1.58-9.19 4.49-12.81-3.69 1.48-6.97 3.97-9.4 7.15-.21.28-.61.33-.88.12-.28-.21-.33-.61-.12-.89 3.08-4.04 7.46-7.01 12.33-8.37.28-.08.57.04.72.29.14.25.1.56-.1.77-3.72 3.65-5.77 8.53-5.77 13.74 0 10.62 8.64 19.25 19.25 19.25 5.21 0 10.09-2.05 13.74-5.77.2-.21.52-.25.77-.1.25.14.37.44.29.72-2.81 10.09-12.1 17.14-22.58 17.14z"></path></g><g><path d="m32.76 28.06c-1.52 0-2.75-1.23-2.75-2.75 0-.35.28-.63.63-.63s.63.28.63.63c0 .82.67 1.49 1.49 1.49s1.49-.67 1.49-1.49c0-.35.28-.63.63-.63s.63.28.63.63c0 1.52-1.24 2.75-2.75 2.75z"></path></g><g><path d="m40.16 28.06c-1.52 0-2.75-1.23-2.75-2.75 0-.35.28-.63.63-.63s.63.28.63.63c0 .82.67 1.49 1.49 1.49s1.49-.67 1.49-1.49c0-.35.28-.63.63-.63s.63.28.63.63c0 1.52-1.23 2.75-2.75 2.75z"></path></g><g><path d="m38.4 33.42h-3.89c-.35 0-.63-.28-.63-.63s.28-.63.63-.63h3.89c.35 0 .63.28.63.63 0 .34-.28.63-.63.63z"></path></g></g></g></g></svg>