<!-- icon666.com - MILLIONS OF FREE VECTOR ICONS --><svg id="Layer_1" viewBox="0 0 64 64" xmlns="http://www.w3.org/2000/svg" data-name="Layer 1"><path d="m42 45.639c0 2.426-4.77 4.495-11.479 5.306-.2.024-.39.049-.585.065a52.279 52.279 0 0 1 -5.784.308 52.279 52.279 0 0 1 -5.784-.308c-.2-.016-.39-.041-.584-.065-6.709-.811-11.48-2.88-11.48-5.306 0-1.509 1.136-1.517 3.245-3.894 2.637-2.977 1.737-12.964 4.868-15.576a12.808 12.808 0 0 1 4.941-2.426 19.019 19.019 0 0 1 9.589 0 12.8 12.8 0 0 1 4.94 2.426c3.132 2.612 2.231 12.6 4.868 15.576 2.109 2.377 3.245 2.385 3.245 3.894z" fill="#ffd32a"></path><path d="m24.152 52.318a53.315 53.315 0 0 1 -5.895-.318c-.179-.014-.388-.04-.6-.066-7.732-.934-12.352-3.287-12.352-6.294a3.321 3.321 0 0 1 1.6-2.743 16.6 16.6 0 0 0 1.9-1.816c1.045-1.181 1.495-4.075 1.921-6.872.568-3.7 1.106-7.186 3.05-8.808a13.866 13.866 0 0 1 5.324-2.625 20.07 20.07 0 0 1 10.1 0 13.865 13.865 0 0 1 5.327 2.624c1.945 1.623 2.483 5.113 3.051 8.807.431 2.8.876 5.69 1.926 6.875a16.674 16.674 0 0 0 1.896 1.818 3.319 3.319 0 0 1 1.6 2.74c0 3.007-4.62 5.362-12.359 6.3-.2.026-.415.051-.624.069a53.1 53.1 0 0 1 -5.865.309zm0-28.19a17.6 17.6 0 0 0 -4.533.581 11.872 11.872 0 0 0 -4.56 2.229c-1.364 1.137-1.89 4.558-2.355 7.576-.5 3.223-.965 6.269-2.4 7.894a18.653 18.653 0 0 1 -2.1 2.019c-.824.7-.89.786-.89 1.213 0 1.469 3.715 3.48 10.6 4.312.184.024.364.046.544.061a53.418 53.418 0 0 0 11.377 0c.211-.017.392-.04.571-.063 6.879-.83 10.594-2.841 10.594-4.31 0-.427-.066-.518-.891-1.213a18.735 18.735 0 0 1 -2.1-2.018c-1.44-1.626-1.909-4.673-2.405-7.9-.465-3.018-.992-6.438-2.355-7.575a11.883 11.883 0 0 0 -4.555-2.227 17.626 17.626 0 0 0 -4.544-.579z" fill="#231f20"></path><path d="m29.02 22.924a4.578 4.578 0 0 1 -.073.819 19.019 19.019 0 0 0 -9.589 0 4.488 4.488 0 0 1 -.073-.819 4.868 4.868 0 1 1 9.735 0z" fill="#ffc048"></path><path d="m29.735 24.991-1.048-.282a18 18 0 0 0 -9.07 0l-1.049.281-.194-1.067a5.435 5.435 0 0 1 -.09-1 5.868 5.868 0 1 1 11.736 0 5.524 5.524 0 0 1 -.09 1zm-5.583-5.935a3.872 3.872 0 0 0 -3.844 3.444 20.308 20.308 0 0 1 7.692 0 3.872 3.872 0 0 0 -3.848-3.444z" fill="#231f20"></path><path d="m29.936 51.01a6.484 6.484 0 0 1 -11.568 0 52.279 52.279 0 0 0 5.784.308 52.279 52.279 0 0 0 5.784-.308z" fill="#ffa801"></path><g fill="#231f20"><path d="m24.152 55.563a7.45 7.45 0 0 1 -6.675-4.1l-.839-1.651 1.841.2a53.522 53.522 0 0 0 11.346 0l1.842-.2-.839 1.652a7.456 7.456 0 0 1 -6.676 4.099zm-3.619-3.363a5.5 5.5 0 0 0 7.238 0 56.755 56.755 0 0 1 -7.238 0z"></path><path d="m45.218 22.2h-8.218a1 1 0 0 1 -.771-1.638l4.601-5.562h-5.83a1 1 0 0 1 0-2h7.956a1 1 0 0 1 .771 1.638l-4.6 5.558h6.092a1 1 0 0 1 0 2z"></path><path d="m57.218 18.2h-8.218a1 1 0 0 1 -.771-1.638l4.601-5.562h-5.83a1 1 0 0 1 0-2h7.956a1 1 0 0 1 .771 1.638l-4.6 5.558h6.092a1 1 0 0 1 0 2z"></path></g></svg>